<svg width="32" height="32" viewBox="0 0 32 32" fill="none" xmlns="http://www.w3.org/2000/svg">
<g clip-path="url(#clip0_1_126)">
<path d="M4.44226 10.3652C3.8909 10.3652 3.42309 10.5575 3.03855 10.9421C2.654 11.3266 2.46167 11.788 2.46167 12.3266V20.5958C2.46167 21.1478 2.65394 21.6152 3.03855 21.9998C3.42309 22.3844 3.8909 22.5767 4.44226 22.5767C4.99321 22.5767 5.45818 22.3844 5.83677 21.9998C6.2146 21.6153 6.40404 21.1478 6.40404 20.5958V12.3266C6.40404 11.788 6.21177 11.3266 5.82716 10.9421C5.44256 10.5575 4.98083 10.3652 4.44226 10.3652Z" fill="#1F2937"/>
<path d="M20.3656 2.94205L21.731 0.423241C21.8206 0.256486 21.7887 0.128612 21.6351 0.0386963C21.4682 -0.0388377 21.3401 0.00045004 21.2505 0.153782L19.866 2.69273C18.6477 2.1541 17.3592 1.88429 16.0005 1.88429C14.6414 1.88429 13.3528 2.15416 12.135 2.69273L10.7504 0.153782C10.6605 0.00045004 10.5323 -0.0384905 10.3659 0.0386963C10.2119 0.129017 10.18 0.256486 10.27 0.423241L11.6354 2.94205C10.2509 3.64813 9.14815 4.63148 8.32768 5.89424C7.50721 7.1577 7.0968 8.53838 7.0968 10.0387H24.8848C24.8848 8.53873 24.4744 7.15799 23.6539 5.89424C22.8334 4.63148 21.7371 3.64813 20.3656 2.94205ZM12.4714 6.6057C12.3237 6.75371 12.1474 6.82737 11.9424 6.82737C11.737 6.82737 11.5642 6.75371 11.4233 6.6057C11.2823 6.45839 11.2118 6.28272 11.2118 6.07703C11.2118 5.87202 11.2823 5.69601 11.4233 5.54835C11.5642 5.40103 11.7374 5.32738 11.9424 5.32738C12.1474 5.32738 12.3237 5.40103 12.4714 5.54835C12.6187 5.69636 12.6927 5.87202 12.6927 6.07703C12.6923 6.28238 12.6184 6.45839 12.4714 6.6057ZM20.5769 6.6057C20.4357 6.75371 20.2625 6.82737 20.0579 6.82737C19.8524 6.82737 19.6761 6.75371 19.5287 6.6057C19.3811 6.45839 19.3075 6.28272 19.3075 6.07703C19.3075 5.87202 19.3811 5.69601 19.5287 5.54835C19.6761 5.40103 19.8524 5.32738 20.0579 5.32738C20.2629 5.32738 20.4357 5.40103 20.5769 5.54835C20.718 5.69636 20.7884 5.87202 20.7884 6.07703C20.7884 6.28238 20.718 6.45839 20.5769 6.6057Z" fill="#1F2937"/>
<path d="M7.1731 23.5383C7.1731 24.1286 7.3781 24.6283 7.78816 25.0383C8.19857 25.4484 8.69826 25.6534 9.28815 25.6534H10.7113L10.7308 30.0193C10.7308 30.5706 10.9231 31.0387 11.3076 31.4233C11.6922 31.8079 12.154 32.0002 12.6922 32.0002C13.2432 32.0002 13.7113 31.8079 14.0959 31.4233C14.4805 31.0387 14.6728 30.5706 14.6728 30.0193V25.6538H17.3265V30.0193C17.3265 30.5706 17.5187 31.0387 17.9033 31.4233C18.2879 31.8079 18.7556 32.0002 19.307 32.0002C19.858 32.0002 20.3261 31.8079 20.7107 31.4233C21.0954 31.0387 21.2876 30.5706 21.2876 30.0193V25.6538H22.7299C23.3067 25.6538 23.8 25.4487 24.2108 25.0387C24.6208 24.6286 24.826 24.1289 24.826 23.5387V10.7305H7.1731V23.5383Z" fill="#1F2937"/>
<path d="M27.5579 10.3652C27.0192 10.3652 26.5579 10.5547 26.1733 10.9325C25.7887 11.311 25.5964 11.776 25.5964 12.3266V20.5958C25.5964 21.1478 25.7887 21.6152 26.1733 21.9998C26.5579 22.3844 27.0196 22.5767 27.5579 22.5767C28.1089 22.5767 28.577 22.3844 28.9616 21.9998C29.3462 21.6152 29.5384 21.1478 29.5384 20.5958V12.3266C29.5384 11.7759 29.3462 11.311 28.9616 10.9325C28.577 10.5547 28.1089 10.3652 27.5579 10.3652Z" fill="#1F2937"/>
</g>
<defs>
<clipPath id="clip0_1_126">
<rect width="32" height="32" fill="white"/>
</clipPath>
</defs>
</svg>
