<svg width="50" height="32" viewBox="0 0 50 32" fill="none" xmlns="http://www.w3.org/2000/svg">
<g id="MasterCard" clip-path="url(#clip0_1_168)">
<g id="MasterCard_2">
<rect id="Rectangle" width="50" height="32" rx="3" fill="#0F3560"/>
<g id="Group">
<g id="Group_2">
<path id="Vector" d="M29.3632 23.8644H20.614V8.14062H29.3632V23.8644Z" fill="#FF5F00"/>
<g id="Group_3">
<path id="Vector_2" d="M21.1745 16.0015C21.1745 12.8118 22.6679 9.97057 24.9936 8.13955C23.2929 6.80063 21.1465 6.00147 18.8139 6.00147C13.2916 6.00147 8.81519 10.4785 8.81519 16.0015C8.81519 21.5244 13.2916 26.0015 18.8139 26.0015C21.1465 26.0015 23.2929 25.2023 24.9936 23.8634C22.6679 22.0324 21.1745 19.1911 21.1745 16.0015Z" fill="#EB001B"/>
</g>
<g id="Group_4">
<path id="Vector_3" d="M41.1631 16.0015C41.1631 21.5244 36.6867 26.0015 31.1644 26.0015C28.8317 26.0015 26.6854 25.2023 24.9841 23.8634C27.3103 22.0324 28.8038 19.1911 28.8038 16.0015C28.8038 12.8118 27.3103 9.97057 24.9841 8.13955C26.6854 6.80063 28.8317 6.00147 31.1644 6.00147C36.6867 6.00147 41.1631 10.4785 41.1631 16.0015Z" fill="#F79E1B"/>
</g>
</g>
<g id="Group_5">
<path id="Vector_4" d="M16.3391 16.0646C16.3391 15.6278 16.6254 15.269 17.0931 15.269C17.54 15.269 17.8418 15.6123 17.8418 16.0646C17.8418 16.5169 17.54 16.8602 17.0931 16.8602C16.6254 16.8602 16.3391 16.5014 16.3391 16.0646ZM18.3512 16.0646V14.822H17.8108V15.1238C17.6394 14.9 17.3794 14.7596 17.0259 14.7596C16.329 14.7596 15.7827 15.3059 15.7827 16.0646C15.7827 16.8239 16.329 17.3696 17.0259 17.3696C17.3794 17.3696 17.6394 17.2292 17.8108 17.0054V17.3071H18.3512V16.0646ZM36.6109 16.0646C36.6109 15.6278 36.8972 15.269 37.3649 15.269C37.8124 15.269 38.1136 15.6123 38.1136 16.0646C38.1136 16.5169 37.8124 16.8602 37.3649 16.8602C36.8972 16.8602 36.6109 16.5014 36.6109 16.0646ZM38.6235 16.0646V13.8241H38.0826V15.1238C37.9112 14.9 37.6512 14.7596 37.2977 14.7596C36.6008 14.7596 36.0545 15.3059 36.0545 16.0646C36.0545 16.8239 36.6008 17.3696 37.2977 17.3696C37.6512 17.3696 37.9112 17.2292 38.0826 17.0054V17.3071H38.6235V16.0646ZM25.0584 15.2434C25.4066 15.2434 25.6303 15.4618 25.6874 15.8462H24.3979C24.4556 15.4874 24.6734 15.2434 25.0584 15.2434ZM25.0691 14.7596C24.3407 14.7596 23.8314 15.2898 23.8314 16.0646C23.8314 16.8549 24.3616 17.3696 25.1054 17.3696C25.4798 17.3696 25.8225 17.2762 26.1242 17.0215L25.8594 16.621C25.6511 16.787 25.3857 16.8811 25.1364 16.8811C24.7883 16.8811 24.4711 16.7198 24.3931 16.2723H26.2385C26.2439 16.205 26.2492 16.1372 26.2492 16.0646C26.2439 15.2898 25.7654 14.7596 25.0691 14.7596ZM31.5937 16.0646C31.5937 15.6278 31.88 15.269 32.3477 15.269C32.7946 15.269 33.0963 15.6123 33.0963 16.0646C33.0963 16.5169 32.7946 16.8602 32.3477 16.8602C31.88 16.8602 31.5937 16.5014 31.5937 16.0646ZM33.6057 16.0646V14.822H33.0654V15.1238C32.8934 14.9 32.6339 14.7596 32.2805 14.7596C31.5836 14.7596 31.0373 15.3059 31.0373 16.0646C31.0373 16.8239 31.5836 17.3696 32.2805 17.3696C32.6339 17.3696 32.8934 17.2292 33.0654 17.0054V17.3071H33.6057V16.0646ZM28.5421 16.0646C28.5421 16.8186 29.067 17.3696 29.868 17.3696C30.2423 17.3696 30.4916 17.2863 30.7618 17.0733L30.5023 16.6365C30.2994 16.7823 30.0864 16.8602 29.8519 16.8602C29.4205 16.8549 29.1033 16.543 29.1033 16.0646C29.1033 15.5861 29.4205 15.2743 29.8519 15.269C30.0864 15.269 30.2994 15.3469 30.5023 15.4927L30.7618 15.0559C30.4916 14.8429 30.2423 14.7596 29.868 14.7596C29.067 14.7596 28.5421 15.3106 28.5421 16.0646ZM35.5088 14.7596C35.197 14.7596 34.9941 14.9054 34.8536 15.1238V14.822H34.3181V17.3071H34.859V15.914C34.859 15.5028 35.0357 15.2743 35.3892 15.2743C35.4987 15.2743 35.613 15.2898 35.7272 15.3368L35.8939 14.8274C35.7742 14.7804 35.6183 14.7596 35.5088 14.7596ZM21.0237 15.0196C20.7637 14.8482 20.4054 14.7596 20.0103 14.7596C19.3807 14.7596 18.9754 15.0613 18.9754 15.5552C18.9754 15.9605 19.2771 16.2104 19.8329 16.2883L20.0882 16.3246C20.3846 16.3663 20.5244 16.4443 20.5244 16.5847C20.5244 16.7769 20.3269 16.8864 19.9579 16.8864C19.5836 16.8864 19.3134 16.7668 19.1313 16.6264L18.8766 17.0471C19.173 17.2655 19.5473 17.3696 19.9525 17.3696C20.6702 17.3696 21.0862 17.0316 21.0862 16.5585C21.0862 16.1217 20.7589 15.8932 20.218 15.8152L19.9633 15.7784C19.7294 15.7474 19.5419 15.701 19.5419 15.5344C19.5419 15.3523 19.7187 15.2434 20.015 15.2434C20.3322 15.2434 20.6393 15.363 20.7898 15.4564L21.0237 15.0196ZM27.9958 14.7596C27.684 14.7596 27.481 14.9054 27.3412 15.1238V14.822H26.8056V17.3071H27.346V15.914C27.346 15.5028 27.5227 15.2743 27.8762 15.2743C27.9857 15.2743 28.0999 15.2898 28.2142 15.3368L28.3808 14.8274C28.2612 14.7804 28.1053 14.7596 27.9958 14.7596ZM23.3844 14.822H22.5007V14.0681H21.9544V14.822H21.4504V15.316H21.9544V16.4496C21.9544 17.0263 22.1782 17.3696 22.8173 17.3696C23.0518 17.3696 23.322 17.297 23.4933 17.1774L23.3374 16.7144C23.1762 16.8079 22.9994 16.8549 22.859 16.8549C22.5888 16.8549 22.5007 16.6882 22.5007 16.4389V15.316H23.3844V14.822ZM15.3049 17.3071V15.7474C15.3049 15.1601 14.9306 14.7649 14.3271 14.7596C14.01 14.7542 13.6827 14.853 13.4535 15.2017C13.2822 14.9262 13.012 14.7596 12.6323 14.7596C12.3669 14.7596 12.1075 14.8375 11.9045 15.1285V14.822H11.3636V17.3071H11.9093V15.9295C11.9093 15.4981 12.1485 15.269 12.5181 15.269C12.8769 15.269 13.0584 15.5028 13.0584 15.9242V17.3071H13.6047V15.9295C13.6047 15.4981 13.854 15.269 14.2129 15.269C14.5818 15.269 14.7586 15.5028 14.7586 15.9242V17.3071H15.3049Z" fill="white"/>
</g>
</g>
</g>
</g>
<defs>
<clipPath id="clip0_1_168">
<rect width="50" height="32" fill="white"/>
</clipPath>
</defs>
</svg>
